# xmcd
#
# Track frame offsets: 
#        150
#        13262
#        29522
#        49747
#        73620
#        96337
#        130965
#        144160
#        158970
#        182990
#
# Disc length: 2673 seconds
#
# Revision: 0
# Processed by: cddbd v1.5.2PL0 Copyright (c) Steve Scherf et al.
# Submitted via: ExactAudioCopyFreeDBPlugin 1.0
#
DISCID=8e0a6f0a
DTITLE=Ryan Reardon and The Levee Breakers [2002] -  - Live At Checkers 
DTITLE=Travern
DYEAR=2002
DGENRE=Blues
TTITLE0=What's The Matter
TTITLE1=Rock With Me
TTITLE2=You're Gone
TTITLE3=Hale County Road #50
TTITLE4=Gimme Back My Coat
TTITLE5=Little By Little
TTITLE6=Love In Vain
TTITLE7=Mornin' Of My Life
TTITLE8=Walking In Golden Suhshine
TTITLE9=Steady
EXTD=
EXTT0=
EXTT1=
EXTT2=
EXTT3=
EXTT4=
EXTT5=
EXTT6=
EXTT7=
EXTT8=
EXTT9=
PLAYORDER=
